<svg xmlns="http://www.w3.org/2000/svg" width="121" height="124" viewBox="0 0 121 124"><defs><linearGradient id="a" x1="49.872%" x2="49.872%" y1="100.075%" y2=".012%"><stop offset="0%" stop-color="#D81B60"/><stop offset="15.67%" stop-color="#E3446E"/><stop offset="32.85%" stop-color="#ED697A"/><stop offset="50.06%" stop-color="#F58684"/><stop offset="67.09%" stop-color="#FA9A8B"/><stop offset="83.84%" stop-color="#FEA790"/><stop offset="100%" stop-color="#FFAB91"/></linearGradient><filter id="b" width="110.9%" height="110.9%" x="-5.5%" y="-5.5%" filterUnits="objectBoundingBox"><feGaussianBlur in="SourceGraphic" stdDeviation="2"/></filter><linearGradient id="c" x1="49.992%" x2="49.992%" y1="100.038%" y2=".038%"><stop offset="15%" stop-color="#FFBE96"/><stop offset="18.32%" stop-color="#FFC7A1"/><stop offset="25.69%" stop-color="#FFD5B2"/><stop offset="34.63%" stop-color="#FFDFBF"/><stop offset="46.67%" stop-color="#FFE4C6"/><stop offset="75%" stop-color="#FFE6C8"/><stop offset="82.67%" stop-color="#FFE7CB"/><stop offset="88.83%" stop-color="#FFECD5"/><stop offset="94.45%" stop-color="#FFF4E6"/><stop offset="99.74%" stop-color="#FFFEFE"/><stop offset="100%" stop-color="#FFF"/></linearGradient><filter id="d" width="137.5%" height="138.2%" x="-18.8%" y="-19.1%" filterUnits="objectBoundingBox"><feGaussianBlur in="SourceGraphic" stdDeviation="2"/></filter><filter id="e" width="137.5%" height="138.2%" x="-18.8%" y="-19.1%" filterUnits="objectBoundingBox"><feGaussianBlur in="SourceGraphic" stdDeviation="2"/></filter><linearGradient id="f" x1="50.11%" x2="50.11%" y1="107.584%" y2="-7.258%"><stop offset="0%" stop-color="#5D4037"/><stop offset="27.07%" stop-color="#6B4E44"/><stop offset="64.15%" stop-color="#775A50"/><stop offset="100%" stop-color="#7C5E54"/></linearGradient><linearGradient id="g" x1="49.828%" x2="49.828%" y1="107.584%" y2="-7.258%"><stop offset="0%" stop-color="#5D4037"/><stop offset="27.07%" stop-color="#6B4E44"/><stop offset="64.15%" stop-color="#775A50"/><stop offset="100%" stop-color="#7C5E54"/></linearGradient><linearGradient id="h" x1="50.153%" x2="50.153%" y1=".006%" y2="100.006%"><stop offset="0%" stop-color="#FFBE96"/><stop offset="3.476%" stop-color="#FFC7A5"/><stop offset="11.48%" stop-color="#FFD8C1"/><stop offset="20.55%" stop-color="#FFE7D8"/><stop offset="30.93%" stop-color="#FFF2E9"/><stop offset="43.46%" stop-color="#FFF9F6"/><stop offset="60.32%" stop-color="#FFFEFD"/><stop offset="100%" stop-color="#FFF"/></linearGradient><filter id="i" width="144.4%" height="133.3%" x="-22.2%" y="-16.7%" filterUnits="objectBoundingBox"><feGaussianBlur in="SourceGraphic" stdDeviation="2"/></filter><filter id="j" width="141.4%" height="136.4%" x="-20.7%" y="-18.2%" filterUnits="objectBoundingBox"><feGaussianBlur in="SourceGraphic" stdDeviation="2"/></filter><filter id="k" width="153.8%" height="153.8%" x="-26.9%" y="-26.9%" filterUnits="objectBoundingBox"><feGaussianBlur in="SourceGraphic" stdDeviation="2"/></filter><filter id="l" width="144.8%" height="175%" x="-22.4%" y="-37.5%" filterUnits="objectBoundingBox"><feGaussianBlur in="SourceGraphic" stdDeviation="2"/></filter></defs><g fill="none"><path fill="url(#a)" stroke="#B71C1C" stroke-linecap="round" stroke-linejoin="round" stroke-width="2" d="M33.2 19.6L22.4.8l-3.5 10.6-13-5.1 5.2 12.6L.3 22.4l19.1 10.5" transform="translate(2 1)"/><path fill="#B4A0A0" d="M.7 64.4c0 30.4 24.6 51.8 55 51.8s55-21.4 55-51.8-21.4-58.2-55-58.2C21.9 6.2.7 34.1.7 64.4z" filter="url(#b)" opacity=".7" transform="translate(6 2)"/><path fill="url(#c)" d="M55.7 111.4C24.2 111.4.5 89 .5 59.4.5 31 19.9.9 55.7.9 71.5.9 85.8 7.2 96 18.7c9.6 10.9 15 25.3 15 40.7 0 29.7-23.8 52-55.3 52z" transform="translate(6 2)"/><path fill="#D7CCC8" d="M61.7 3.2c33.6 0 55 27.9 55 58.2 0 30.3-24.6 51.8-55 51.8s-55-21.4-55-51.8 21.2-58.2 55-58.2zm0-.5c-15.9 0-30.4 6.4-40.6 17.9C11.5 31.5 6.2 46 6.2 61.4c0 29.8 23.9 52.3 55.5 52.3s55.5-22.5 55.5-52.3c0-15.4-5.3-29.9-15-40.8C92 9 77.6 2.7 61.7 2.7z" opacity=".5"/><g fill="#FFF" transform="translate(20 29)"><g opacity=".7"><path d="M16.3.5C7.5.5.3 7.6.3 16.2s7.2 15.7 16 15.7 16-7.1 16-15.7S25.2.5 16.3.5z" filter="url(#d)" transform="translate(0 1)"/><path d="M67.2.5c-8.8 0-16 7.1-16 15.7s7.2 15.7 16 15.7 16-7.1 16-15.7S76 .5 67.2.5z" filter="url(#e)" transform="translate(0 1)"/></g><ellipse cx="16.3" cy="14.2" stroke="url(#f)" stroke-linecap="round" stroke-linejoin="round" stroke-width="4" rx="14" ry="13.7"/><ellipse cx="67.2" cy="14.2" stroke="url(#g)" stroke-linecap="round" stroke-linejoin="round" stroke-width="4" rx="14" ry="13.7"/></g><path fill="url(#h)" d="M16.2 39.3h-3c-6.6 0-12-5.4-12-12v-15c0-5 4-9 9-9h9c5 0 9 4 9 9v15c0 6.6-5.3 12-12 12z" filter="url(#i)" transform="translate(47 58)"/><path fill="#8D6E63" d="M16.2 33.3h-3c-6.6 0-13-5.4-13-12v-12c0-5 5-9 10-9h9c5 0 10 4 10 9v12c0 6.6-6.3 12-13 12z" filter="url(#j)" transform="translate(47 58)"/><path fill="#823C3C" d="M63.2 94.3h-3c-6.6 0-12-5.4-12-12v-15c0-5 4-9 9-9h9c5 0 9 4 9 9v15c0 6.6-5.3 12-12 12z"/><path fill="#B43C3C" d="M14.8 9.3c-3.7 0-8.2.8-11.2 2.3v11c0 5 4 9 9 9h4.3c5 0 9-4 9-9V11.5c-3-1.4-7.5-2.2-11.1-2.2z" filter="url(#k)" transform="translate(47 58)"/><path fill="#944230" d="M14.8 20.3c-5 0-9.8 2-13.4 5.6.8 5.9 5.8 10.4 11.9 10.4h3c6.1 0 11.1-4.6 11.9-10.4-3.7-3.6-8.4-5.6-13.4-5.6z" filter="url(#l)" transform="translate(47 58)"/><path fill="#FF8A80" d="M61.8 79.3c-5.2 0-9.9 2.2-13.2 5.8 1.3 5.3 6 9.2 11.7 9.2h3c5.7 0 10.4-4 11.7-9.3-3.4-3.5-8-5.7-13.2-5.7z"/></g></svg>