<svg xmlns="http://www.w3.org/2000/svg" width="121" height="125" viewBox="0 0 121 125"><defs><filter id="a" width="110.9%" height="110.9%" x="-5.5%" y="-5.5%" filterUnits="objectBoundingBox"><feGaussianBlur in="SourceGraphic" stdDeviation="2"/></filter><linearGradient id="b" x1="49.955%" x2="49.955%" y1="100.043%" y2=".043%"><stop offset="15%" stop-color="#FFBE96"/><stop offset="18.32%" stop-color="#FFC7A1"/><stop offset="25.69%" stop-color="#FFD5B2"/><stop offset="34.63%" stop-color="#FFDFBF"/><stop offset="46.67%" stop-color="#FFE4C6"/><stop offset="75%" stop-color="#FFE6C8"/><stop offset="82.67%" stop-color="#FFE7CB"/><stop offset="88.83%" stop-color="#FFECD5"/><stop offset="94.45%" stop-color="#FFF4E6"/><stop offset="99.74%" stop-color="#FFFEFE"/><stop offset="100%" stop-color="#FFF"/></linearGradient><linearGradient id="c" x1="35.442%" x2="60.669%" y1="118.302%" y2="12.925%"><stop offset="0%" stop-color="#5A96DE"/><stop offset="3.143%" stop-color="#619BE0"/><stop offset="22.89%" stop-color="#86B5E8"/><stop offset="42.66%" stop-color="#A3CAEF"/><stop offset="62.2%" stop-color="#B7D8F4"/><stop offset="81.44%" stop-color="#C4E1F7"/><stop offset="100%" stop-color="#C8E4F8"/></linearGradient><linearGradient id="d" x1="55.791%" x2="47.291%" y1="95.844%" y2="3.094%"><stop offset="0%" stop-color="#5A96DE"/><stop offset="3.143%" stop-color="#619BE0"/><stop offset="22.89%" stop-color="#86B5E8"/><stop offset="42.66%" stop-color="#A3CAEF"/><stop offset="62.2%" stop-color="#B7D8F4"/><stop offset="81.44%" stop-color="#C4E1F7"/><stop offset="100%" stop-color="#C8E4F8"/></linearGradient><linearGradient id="e" x1="64.56%" x2="39.332%" y1="118.334%" y2="12.957%"><stop offset="0%" stop-color="#5A96DE"/><stop offset="3.143%" stop-color="#619BE0"/><stop offset="22.89%" stop-color="#86B5E8"/><stop offset="42.66%" stop-color="#A3CAEF"/><stop offset="62.2%" stop-color="#B7D8F4"/><stop offset="81.44%" stop-color="#C4E1F7"/><stop offset="100%" stop-color="#C8E4F8"/></linearGradient><linearGradient id="f" x1="44.276%" x2="52.776%" y1="95.875%" y2="3.126%"><stop offset="0%" stop-color="#5A96DE"/><stop offset="3.143%" stop-color="#619BE0"/><stop offset="22.89%" stop-color="#86B5E8"/><stop offset="42.66%" stop-color="#A3CAEF"/><stop offset="62.2%" stop-color="#B7D8F4"/><stop offset="81.44%" stop-color="#C4E1F7"/><stop offset="100%" stop-color="#C8E4F8"/></linearGradient><filter id="g" width="113.4%" height="125.9%" x="-6.7%" y="-12.9%" filterUnits="objectBoundingBox"><feGaussianBlur in="SourceGraphic" stdDeviation="2"/></filter><filter id="h" width="106.6%" height="112.7%" x="-3.3%" y="-6.3%" filterUnits="objectBoundingBox"><feGaussianBlur in="SourceGraphic" stdDeviation="1"/></filter><filter id="i" width="115.2%" height="136%" x="-7.6%" y="-18%" filterUnits="objectBoundingBox"><feGaussianBlur in="SourceGraphic" stdDeviation="2"/></filter><filter id="j" width="123.9%" height="162.5%" x="-11.9%" y="-31.2%" filterUnits="objectBoundingBox"><feGaussianBlur in="SourceGraphic" stdDeviation="2"/></filter><filter id="k" width="160.8%" height="326.2%" x="-30.4%" y="-113.1%" filterUnits="objectBoundingBox"><feGaussianBlur in="SourceGraphic" stdDeviation="2"/></filter><linearGradient id="l" x1="50.202%" x2="50.202%" y1="-28.282%" y2="128.172%"><stop offset="0%" stop-color="#5D4037"/><stop offset="27.07%" stop-color="#6B4E44"/><stop offset="64.15%" stop-color="#775A50"/><stop offset="100%" stop-color="#7C5E54"/></linearGradient><filter id="m" width="160.8%" height="326.2%" x="-30.4%" y="-113.1%" filterUnits="objectBoundingBox"><feGaussianBlur in="SourceGraphic" stdDeviation="2"/></filter><linearGradient id="n" x1="49.798%" x2="49.798%" y1="-28.282%" y2="128.172%"><stop offset="0%" stop-color="#5D4037"/><stop offset="27.07%" stop-color="#6B4E44"/><stop offset="64.15%" stop-color="#775A50"/><stop offset="100%" stop-color="#7C5E54"/></linearGradient></defs><g fill="none" fill-rule="evenodd"><g fill-rule="nonzero"><path fill="#B4A0A0" d="M.5 64.7c0 30.4 24.6 51.8 55 51.8s55-21.4 55-51.8-21.4-58.2-55-58.2C21.7 6.5.5 34.4.5 64.7z" filter="url(#a)" opacity=".7" transform="translate(5 2)"/><path fill="url(#b)" d="M55.5 110.7C24 110.7.3 88.3.3 58.7.3 30.3 19.7.2 55.5.2 71.3.2 85.6 6.5 95.8 18c9.6 10.9 15 25.3 15 40.7 0 29.7-23.8 52-55.3 52z" transform="translate(5 2)"/><path fill="#D7CCC8" d="M60.5 2.5c33.6 0 55 27.9 55 58.2 0 30.3-24.6 51.8-55 51.8s-55-21.4-55-51.8 21.2-58.2 55-58.2zm0-.5C44.6 2 30.1 8.4 19.9 19.9 10.3 30.8 5 45.3 5 60.7 5 90.5 28.9 113 60.5 113S116 90.5 116 60.7c0-15.4-5.3-29.9-15-40.8C90.8 8.4 76.4 2 60.5 2z" opacity=".5"/></g><g fill-rule="nonzero" stroke="#ABC7D3" stroke-linecap="round" stroke-linejoin="round" stroke-width=".5"><path fill="url(#c)" d="M14.4 5.5S9.9.1 4.4.4c-5.5.3-5.1 5.4-2 6.4 4.5 1.6 5.7-4.2 12-1.3z" transform="translate(1 29)"/><path fill="url(#d)" d="M19.2 10.8S9.8 9.2 3.5 15.6c-5.7 5.8-2.3 12.5 3.1 11.1 8-2.1.6-10.3 12.6-15.9z" transform="translate(1 29)"/><path fill="url(#e)" d="M104.6 5.5s4.5-5.4 10-5.1c5.5.3 5.1 5.4 2 6.4-4.5 1.6-5.7-4.2-12-1.3z" transform="translate(1 29)"/><path fill="url(#f)" d="M99.8 10.8s9.4-1.6 15.7 4.8c5.7 5.8 2.3 12.5-3.1 11.1-8-2.1-.5-10.3-12.6-15.9z" transform="translate(1 29)"/></g><g fill-rule="nonzero"><path fill="#FFF" d="M45.5 5C18.2 5 7.5 7 3.3 8.5 1.7 9.1.6 10.7.8 12.6c1.5 22.1 21.4 38.8 44.8 38.8s43.3-16.7 44.8-38.9c.1-1.8-.9-3.5-2.5-4.1C83.6 6.9 73 5 45.5 5z" filter="url(#g)" transform="translate(15 47)"/><path fill="#8D6E63" d="M87.9 3.9C83.4 2.3 72.4.5 45.5.5 18.9.5 7.7 2.4 3.1 4 1.3 4.6.1 6.5.2 8.6c1.5 22 21.4 39.3 45.3 39.3S89.3 30.6 90.8 8.6c.1-2.2-1.1-4.1-2.9-4.7z" filter="url(#h)" opacity=".6" transform="translate(15 47)"/><path fill="#823C3C" d="M60.5 48c-27.3 0-38 2-42.2 3.5-1.6.6-2.7 2.2-2.5 4.1 1.5 22.1 21.4 38.8 44.8 38.8s43.3-16.7 44.8-38.9c.1-1.8-.9-3.5-2.5-4.1C98.6 49.9 88 48 60.5 48z"/><path fill="#B43C3C" d="M45.4 10.1c-16.8 0-28.6 2.1-39.5 7.7 6.4 16.8 20.3 25.6 39.6 25.6 19.2 0 33.1-8.7 39.6-25.4-11-5.8-22.8-7.9-39.7-7.9z" filter="url(#i)" transform="translate(15 47)"/><path fill="#944230" d="M70.4 38.3c-4.5-7.1-14.3-11.6-24.9-11.6-10.7 0-20.4 4.6-24.9 11.7l-.3.4.4.3c7.4 4.4 15.9 6.8 24.7 6.8 8.8 0 17.4-2.4 24.8-6.8l.4-.3-.2-.5z" filter="url(#j)" transform="translate(15 47)"/><path fill="#FF8A80" d="M36 87.6c7.1 4.3 15.5 6.7 24.5 6.7s17.4-2.5 24.5-6.7c-4.3-6.7-13.6-11.4-24.5-11.4S40.3 80.9 36 87.6z"/></g><g stroke-linecap="round" stroke-width="4"><path stroke="#F8F8F8" d="M.3 8s4.1-5.2 11.2-6.6c9.6-2 15.1 3 15.1 3" filter="url(#k)" opacity=".75" transform="translate(22 25)"/><path stroke="url(#l)" stroke-linejoin="round" d="M.3 8s4.1-5.2 11.2-6.6c9.6-2 15.1 3 15.1 3" transform="translate(22 23)"/><path stroke="#F8F8F8" d="M26.7 8s-4.1-5.2-11.2-6.6C5.9-.6.4 4.4.4 4.4" filter="url(#m)" opacity=".75" transform="translate(72 25)"/><path stroke="url(#n)" stroke-linejoin="round" d="M76.7 8s-4.1-5.2-11.2-6.6c-9.6-2-15.1 3-15.1 3" transform="translate(22 23)"/></g></g></svg>