<svg xmlns="http://www.w3.org/2000/svg" width="121" height="125" viewBox="0 0 121 125"><defs><filter id="a" width="110.9%" height="110.9%" x="-5.5%" y="-5.5%" filterUnits="objectBoundingBox"><feGaussianBlur in="SourceGraphic" stdDeviation="2"/></filter><linearGradient id="b" x1="49.955%" x2="49.955%" y1="100.044%" y2=".133%"><stop offset="15%" stop-color="#F05A5A"/><stop offset="21.06%" stop-color="#F56566"/><stop offset="30.82%" stop-color="#FB7073"/><stop offset="43.99%" stop-color="#FE767A"/><stop offset="75%" stop-color="#FF787C"/><stop offset="80.28%" stop-color="#FF7B7F"/><stop offset="84.53%" stop-color="#FF8589"/><stop offset="88.41%" stop-color="#FF9699"/><stop offset="92.08%" stop-color="#FFAEB0"/><stop offset="95.6%" stop-color="#FFCDCE"/><stop offset="98.96%" stop-color="#FFF2F2"/><stop offset="100%" stop-color="#FFF"/></linearGradient><filter id="c" width="124.5%" height="149.8%" x="-12.2%" y="-24.9%" filterUnits="objectBoundingBox"><feGaussianBlur in="SourceGraphic" stdDeviation="2"/></filter><linearGradient id="d" x1="50.023%" x2="50.023%" y1=".093%" y2="99.57%"><stop offset="0%" stop-color="#F05A5A"/><stop offset="21.47%" stop-color="#F05D5D"/><stop offset="38.72%" stop-color="#F26767"/><stop offset="54.5%" stop-color="#F37878"/><stop offset="69.4%" stop-color="#F69090"/><stop offset="83.69%" stop-color="#FAAFAF"/><stop offset="97.34%" stop-color="#FED4D4"/><stop offset="100%" stop-color="#FFDCDC"/></linearGradient><filter id="e" width="125.5%" height="151.7%" x="-12.8%" y="-25.9%" filterUnits="objectBoundingBox"><feGaussianBlur in="SourceGraphic" stdDeviation="2"/></filter><filter id="f" width="133.5%" height="174.1%" x="-16.8%" y="-37%" filterUnits="objectBoundingBox"><feGaussianBlur in="SourceGraphic" stdDeviation="2"/></filter><linearGradient id="g" x1="-21.016%" x2="122.053%" y1="49.3%" y2="49.3%"><stop offset="0%" stop-color="#5D4037"/><stop offset="27.07%" stop-color="#6B4E44"/><stop offset="64.15%" stop-color="#775A50"/><stop offset="100%" stop-color="#7C5E54"/></linearGradient><linearGradient id="h" x1="-22.103%" x2="120.966%" y1="50.026%" y2="50.026%"><stop offset="0%" stop-color="#5D4037"/><stop offset="27.07%" stop-color="#6B4E44"/><stop offset="64.15%" stop-color="#775A50"/><stop offset="100%" stop-color="#7C5E54"/></linearGradient><linearGradient id="i" x1="-21.377%" x2="121.691%" y1="49.3%" y2="49.3%"><stop offset="0%" stop-color="#5D4037"/><stop offset="27.07%" stop-color="#6B4E44"/><stop offset="64.15%" stop-color="#775A50"/><stop offset="100%" stop-color="#7C5E54"/></linearGradient><linearGradient id="j" x1="-21.377%" x2="121.691%" y1="50.026%" y2="50.026%"><stop offset="0%" stop-color="#5D4037"/><stop offset="27.07%" stop-color="#6B4E44"/><stop offset="64.15%" stop-color="#775A50"/><stop offset="100%" stop-color="#7C5E54"/></linearGradient><linearGradient id="k" x1="23.39%" x2="54.219%" y1="98.968%" y2="33.869%"><stop offset="15%" stop-color="#F05A5A"/><stop offset="21.06%" stop-color="#F56566"/><stop offset="30.82%" stop-color="#FB7073"/><stop offset="43.99%" stop-color="#FE767A"/><stop offset="75%" stop-color="#FF787C"/><stop offset="80.28%" stop-color="#FF7B7F"/><stop offset="84.53%" stop-color="#FF8589"/><stop offset="88.41%" stop-color="#FF9699"/><stop offset="92.08%" stop-color="#FFAEB0"/><stop offset="95.6%" stop-color="#FFCDCE"/><stop offset="98.96%" stop-color="#FFF2F2"/><stop offset="100%" stop-color="#FFF"/></linearGradient><filter id="l" width="134.9%" height="142.1%" x="-17.5%" y="-21.1%" filterUnits="objectBoundingBox"><feGaussianBlur in="SourceGraphic" stdDeviation="2"/></filter><linearGradient id="m" x1="23.39%" x2="54.219%" y1="99.113%" y2="33.916%"><stop offset="0%" stop-color="#FFD54F"/><stop offset="15.61%" stop-color="#FED24F"/><stop offset="28.14%" stop-color="#FAC84F"/><stop offset="39.61%" stop-color="#F3B74F"/><stop offset="50.45%" stop-color="#EA9F50"/><stop offset="60.74%" stop-color="#DE8150"/><stop offset="66%" stop-color="#D76E50"/></linearGradient><linearGradient id="n" x1="-6.553%" x2="106.828%" y1="50.202%" y2="50.202%"><stop offset="0%" stop-color="#5D4037"/><stop offset="27.07%" stop-color="#6B4E44"/><stop offset="64.15%" stop-color="#775A50"/><stop offset="100%" stop-color="#7C5E54"/></linearGradient><linearGradient id="o" x1="-6.136%" x2="106.364%" y1="49.897%" y2="49.897%"><stop offset="0%" stop-color="#5D4037"/><stop offset="27.07%" stop-color="#6B4E44"/><stop offset="64.15%" stop-color="#775A50"/><stop offset="100%" stop-color="#7C5E54"/></linearGradient><linearGradient id="p" x1="76.61%" x2="45.781%" y1="98.968%" y2="33.869%"><stop offset="15%" stop-color="#F05A5A"/><stop offset="21.06%" stop-color="#F56566"/><stop offset="30.82%" stop-color="#FB7073"/><stop offset="43.99%" stop-color="#FE767A"/><stop offset="75%" stop-color="#FF787C"/><stop offset="80.28%" stop-color="#FF7B7F"/><stop offset="84.53%" stop-color="#FF8589"/><stop offset="88.41%" stop-color="#FF9699"/><stop offset="92.08%" stop-color="#FFAEB0"/><stop offset="95.6%" stop-color="#FFCDCE"/><stop offset="98.96%" stop-color="#FFF2F2"/><stop offset="100%" stop-color="#FFF"/></linearGradient><filter id="q" width="134.9%" height="142.1%" x="-17.5%" y="-21.1%" filterUnits="objectBoundingBox"><feGaussianBlur in="SourceGraphic" stdDeviation="2"/></filter><linearGradient id="r" x1="76.61%" x2="45.781%" y1="99.113%" y2="33.916%"><stop offset="0%" stop-color="#FFD54F"/><stop offset="15.61%" stop-color="#FED24F"/><stop offset="28.14%" stop-color="#FAC84F"/><stop offset="39.61%" stop-color="#F3B74F"/><stop offset="50.45%" stop-color="#EA9F50"/><stop offset="60.74%" stop-color="#DE8150"/><stop offset="66%" stop-color="#D76E50"/></linearGradient><linearGradient id="s" x1="106.553%" x2="-6.828%" y1="50.202%" y2="50.202%"><stop offset="0%" stop-color="#5D4037"/><stop offset="27.07%" stop-color="#6B4E44"/><stop offset="64.15%" stop-color="#775A50"/><stop offset="100%" stop-color="#7C5E54"/></linearGradient><linearGradient id="t" x1="106.136%" x2="-6.364%" y1="49.897%" y2="49.897%"><stop offset="0%" stop-color="#5D4037"/><stop offset="27.07%" stop-color="#6B4E44"/><stop offset="64.15%" stop-color="#775A50"/><stop offset="100%" stop-color="#7C5E54"/></linearGradient></defs><g fill="none" fill-rule="evenodd"><g fill-rule="nonzero"><path fill="#B4A0A0" d="M.5 64.7c0 30.4 24.6 51.8 55 51.8s55-21.4 55-51.8-21.4-58.2-55-58.2C21.7 6.5.5 34.4.5 64.7z" filter="url(#a)" opacity=".7" transform="translate(5 2)"/><path fill="url(#b)" d="M40.8 111.7c-2.8 0-5.2-1.9-6-4.6C13.5 99.4.3 80.9.3 58.6.3 30.2 19.7.1 55.5.1c15.8 0 30.1 6.3 40.3 17.8 9.6 10.9 15 25.3 15 40.7 0 22.2-13.2 40.8-34.5 48.4-.8 2.7-3.2 4.6-6 4.6H40.8v.1z" transform="translate(5 2)"/><path fill="#D7CCC8" d="M60.5 2.5c33.6 0 55 27.9 55 58.2 0 23.1-14.3 41-34.5 48.3-.7 2.6-3 4.5-5.8 4.5H45.7c-2.7 0-5.1-1.9-5.8-4.5-20.2-7.2-34.5-25.1-34.5-48.3.1-30.3 21.3-58.2 55.1-58.2zm0-.5C44.6 2 30.1 8.4 19.9 19.9 10.3 30.8 5 45.3 5 60.7c0 22.3 13.2 40.9 34.6 48.6.8 2.7 3.3 4.6 6.2 4.6h29.5c2.9 0 5.4-1.9 6.2-4.6C102.8 101.6 116 83 116 60.7c0-15.4-5.3-29.9-15-40.8C90.8 8.4 76.4 2 60.5 2z" opacity=".5"/></g><path fill="#B43C3C" fill-rule="nonzero" d="M49 4.4S39.2.1 24.5.1 0 4.4 0 4.4l4.5 18.7s9.8 1.1 20 1.1 20-1.1 20-1.1L49 4.4z" filter="url(#c)" transform="translate(36 79)"/><path fill="url(#d)" fill-rule="nonzero" d="M48 10.4s-8.8-6.3-23.5-6.3S1 10.4 1 10.4l3.9 13.8c.3 1.2 1.4 2 2.6 2.2 3.2.3 9.7.9 17 .9 7.3 0 13.8-.5 17-.9 1.2-.1 2.2-1 2.6-2.2L48 10.4z" filter="url(#e)" transform="translate(36 79)"/><path fill="#823C3C" fill-rule="nonzero" d="M83 84.4s-7.8-4.3-22.5-4.3S38 84.4 38 84.4l4.5 18.7s7.8 1.1 18 1.1 18-1.1 18-1.1L83 84.4z"/><path fill="#B43C3C" fill-rule="nonzero" d="M42.4 8.2S35.5 5 24.5 5C13.5 5 6.6 8.2 6.6 8.2l3.4 13s6.9-3.3 14.5-3.3c7.7 0 14.5 3.3 14.5 3.3l3.4-13z" filter="url(#f)" transform="translate(36 79)"/><path d="M55.6 85.8l4.9-5.7c-4.5 0-8.3.4-11.5 1l6.6 4.7zM49 81.1c-7.2 1.3-11 3.3-11 3.3l7.1 3 3.9-6.3zm16.4 4.7l-4.9-5.7c4.5 0 8.3.4 11.5 1l-6.6 4.7zm6.6-4.7c7.2 1.3 11 3.3 11 3.3l-7.1 3-3.9-6.3zM49 103.8l-3.3-5.4-3.2 4.7s7.8 1.1 18 1.1l-5.8-6.5-5.7 6.1zm22.6 0l3.7-5.4 3.2 4.7s-7.8 1.1-18 1.1l5.8-6.5 5.3 6.1z" fill="#FFF" fill-rule="nonzero"/><path stroke="#B43C3C" stroke-linecap="round" d="M39 106l-.1-.2c-1.2-2.5-1.9-5.3-1.9-8.2m45 8.4l.1-.2c1.2-2.5 1.9-5.3 1.9-8.2"/><g stroke-linecap="round" stroke-linejoin="round" stroke-width="4" opacity=".75"><path stroke="url(#g)" d="M9.3.5v3.3c0 3.2-2.6 5.9-5.9 5.9H.1" transform="translate(83 4)"/><path stroke="url(#h)" d="M.2 16.6h3.3c3.2 0 5.9 2.6 5.9 5.9v3.3" transform="translate(83 4)"/><path stroke="url(#i)" d="M16.3.5v3.3c0 3.2 2.6 5.9 5.9 5.9h3.3" transform="translate(83 4)"/><path stroke="url(#j)" d="M25.5 16.6h-3.3c-3.2 0-5.9 2.6-5.9 5.9v3.3" transform="translate(83 4)"/></g><g fill-rule="nonzero"><path fill="url(#k)" d="M5.1 2.6S-.8 21.1 8.6 25.8c9.4 4.8 24.5-5.6 24.5-5.6s-16-5.3-28-17.6z" transform="translate(19 44)"/><path fill="#FFF" d="M3.9.6h-.2c-.4.1-.7.4-.8.7-.3.8-6.5 20.8 4.3 26.3 1.9 1 4.1 1.5 6.6 1.5 9.7 0 20.4-7.3 20.9-7.6.3-.2.5-.6.5-1-.1-.4-.3-.7-.7-.9-.2-.1-17.1-5.8-29.7-18.6-.3-.3-.6-.4-.9-.4z" filter="url(#l)" opacity=".5" transform="translate(19 44)"/></g><path fill="url(#m)" fill-rule="nonzero" stroke="url(#n)" stroke-linecap="round" stroke-linejoin="round" stroke-width="4" d="M5.1 4.6S-.8 23.1 8.6 27.8c9.4 4.7 24.5-5.6 24.5-5.6s-12.8-3-28-17.6z" transform="translate(19 40)"/><path stroke="url(#o)" stroke-linecap="round" stroke-linejoin="round" stroke-width="4" d="M33.1 22.2s-6.3-1.1-17.6-8.9C5.7 6.5 1.1.2 1.1.2" transform="translate(19 40)"/><g fill-rule="nonzero"><path fill="url(#p)" d="M30.9 2.6s5.9 18.5-3.5 23.2C18 30.6 2.9 20.2 2.9 20.2s16-5.3 28-17.6z" transform="translate(66 44)"/><path fill="#FFF" d="M32.1.6c-.3 0-.6.1-.8.3C18.7 13.7 1.8 19.5 1.6 19.5c-.4.1-.7.5-.7.9-.1.4.1.8.5 1 .5.3 11.2 7.6 20.9 7.6 2.5 0 4.7-.5 6.6-1.5C39.7 22 33.5 2.1 33.2 1.2c-.1-.4-.4-.6-.8-.7-.2.1-.3.1-.3.1z" filter="url(#q)" opacity=".5" transform="translate(66 44)"/></g><path fill="url(#r)" fill-rule="nonzero" stroke="url(#s)" stroke-linecap="round" stroke-linejoin="round" stroke-width="4" d="M30.9 4.6s5.9 18.5-3.5 23.2C18 32.5 2.9 22.2 2.9 22.2s12.8-3 28-17.6z" transform="translate(66 40)"/><path stroke="url(#t)" stroke-linecap="round" stroke-linejoin="round" stroke-width="4" d="M2.9 22.2s6.3-1.1 17.6-8.9C30.3 6.5 34.9.2 34.9.2" transform="translate(66 40)"/><path stroke="#C65C5C" stroke-linecap="round" stroke-linejoin="round" d="M58.6 52.1s.4 3-1.6 5.4m5.4-5.4s-.4 3 1.6 5.4"/></g></svg>