<svg xmlns="http://www.w3.org/2000/svg" width="121" height="125" viewBox="0 0 121 125"><defs><filter id="a" width="110.9%" height="110.9%" x="-5.5%" y="-5.5%" filterUnits="objectBoundingBox"><feGaussianBlur in="SourceGraphic" stdDeviation="2"/></filter><linearGradient id="b" x1="49.955%" x2="49.955%" y1="100.037%" y2=".037%"><stop offset="15%" stop-color="#FFBE96"/><stop offset="18.32%" stop-color="#FFC7A1"/><stop offset="25.69%" stop-color="#FFD5B2"/><stop offset="34.63%" stop-color="#FFDFBF"/><stop offset="46.67%" stop-color="#FFE4C6"/><stop offset="75%" stop-color="#FFE6C8"/><stop offset="82.67%" stop-color="#FFE7CB"/><stop offset="88.83%" stop-color="#FFECD5"/><stop offset="94.45%" stop-color="#FFF4E6"/><stop offset="99.74%" stop-color="#FFFEFE"/><stop offset="100%" stop-color="#FFF"/></linearGradient><filter id="c" width="121.1%" height="133.3%" x="-10.6%" y="-16.7%" filterUnits="objectBoundingBox"><feGaussianBlur in="SourceGraphic" stdDeviation="2"/></filter><filter id="d" width="124.2%" height="147.4%" x="-12.1%" y="-23.7%" filterUnits="objectBoundingBox"><feGaussianBlur in="SourceGraphic" stdDeviation="2"/></filter><filter id="e" width="138.1%" height="206.2%" x="-19%" y="-53.1%" filterUnits="objectBoundingBox"><feGaussianBlur in="SourceGraphic" stdDeviation="2"/></filter><filter id="f" width="138.2%" height="207.1%" x="-19.1%" y="-53.6%" filterUnits="objectBoundingBox"><feGaussianBlur in="SourceGraphic" stdDeviation="2"/></filter><filter id="g" width="127.5%" height="131%" x="-13.7%" y="-15.5%" filterUnits="objectBoundingBox"><feGaussianBlur in="SourceGraphic" stdDeviation="2"/></filter><filter id="h" width="136.8%" height="174%" x="-18.4%" y="-37%" filterUnits="objectBoundingBox"><feGaussianBlur in="SourceGraphic" stdDeviation="2"/></filter><filter id="i" width="302.1%" height="288.6%" x="-101%" y="-94.3%" filterUnits="objectBoundingBox"><feGaussianBlur in="SourceGraphic" stdDeviation="2"/></filter><filter id="j" width="138.2%" height="208.1%" x="-19.1%" y="-54.1%" filterUnits="objectBoundingBox"><feGaussianBlur in="SourceGraphic" stdDeviation="2"/></filter><filter id="k" width="127.5%" height="131%" x="-13.7%" y="-15.5%" filterUnits="objectBoundingBox"><feGaussianBlur in="SourceGraphic" stdDeviation="2"/></filter><filter id="l" width="136.8%" height="174%" x="-18.4%" y="-37%" filterUnits="objectBoundingBox"><feGaussianBlur in="SourceGraphic" stdDeviation="2"/></filter><filter id="m" width="287.2%" height="303%" x="-93.6%" y="-101.5%" filterUnits="objectBoundingBox"><feGaussianBlur in="SourceGraphic" stdDeviation="2"/></filter></defs><g fill="none" fill-rule="evenodd"><path fill="#B4A0A0" fill-rule="nonzero" d="M.5 64.4c0 30.4 24.6 51.8 55 51.8s55-21.4 55-51.8-21.4-58.2-55-58.2C21.7 6.2.5 34.1.5 64.4z" filter="url(#a)" opacity=".7" transform="translate(5 2)"/><g fill-rule="nonzero"><path fill="url(#b)" d="M55.5 111C24 111 .3 88.6.3 59 .3 30.6 19.7.5 55.5.5c15.8 0 30.1 6.3 40.3 17.8 9.6 10.9 15 25.3 15 40.7 0 29.7-23.8 52-55.3 52z" transform="translate(5 2)"/><path fill="#D7CCC8" d="M60.5 2.8c33.6 0 55 27.9 55 58.2 0 30.3-24.6 51.8-55 51.8S5.5 91.4 5.5 61s21.2-58.2 55-58.2zm0-.5c-15.9 0-30.4 6.4-40.6 17.9C10.3 31.1 5 45.6 5 61c0 29.8 23.9 52.3 55.5 52.3S116 90.8 116 61c0-15.4-5.3-29.9-15-40.8C90.8 8.6 76.4 2.3 60.5 2.3z" opacity=".5"/></g><g fill-rule="nonzero"><path fill="#FFF" d="M55 5.3c-2.8-1.2-9.7-2.6-26.5-2.6C11.8 2.7 4.9 4.1 2 5.3.8 5.8.1 7.3.1 8.9 1 25.6 13.5 38.7 28.5 38.7c15 0 27.5-13.1 28.4-29.9 0-1.5-.7-3-1.9-3.5z" filter="url(#c)" transform="translate(32 59)"/><path fill="#8D6E63" d="M87 62.3c-2.8-1.2-9.7-2.6-26.5-2.6-16.7 0-23.6 1.4-26.5 2.6-1.2.5-1.9 2-1.9 3.6.9 16.7 13.4 29.8 28.4 29.8 15 0 27.5-13.1 28.4-29.9 0-1.5-.7-3-1.9-3.5z"/><path fill="#823C3C" d="M60.5 60.2c-17.1 0-23.8 1.5-26.4 2.6-1 .4-1.7 1.7-1.6 3.1.9 16.8 13.4 29.4 28 29.4s27.1-12.7 28-29.4c.1-1.4-.6-2.7-1.6-3.1-2.6-1.1-9.2-2.6-26.4-2.6z"/><path fill="#B43C3C" d="M28.4 8.1C17.9 8.1 10.5 9.7 3.7 14c4 12.7 12.7 19.4 24.8 19.4 12 0 20.7-6.6 24.7-19.3-6.8-4.4-14.2-6-24.8-6z" filter="url(#d)" transform="translate(32 59)"/><path fill="#944230" d="M13 30.5c4.5 3.3 9.8 3.8 15.5 3.8 5.8 0 11.5-.5 16-3.8-2.6-4.9-8.85-7.5-15.75-7.5-7.1 0-13.15 2.5-15.75 7.5z" filter="url(#e)" transform="translate(32 59)"/><path fill="#FF8A80" d="M45 90.1c4.5 3.3 9.8 5.2 15.5 5.2 5.8 0 11.2-2 15.7-5.3-2.6-4.9-8.6-7.3-15.5-7.3-7.1 0-13.1 2.4-15.7 7.4z"/></g><path fill="#F48FB1" fill-rule="nonzero" d="M9.9 11.8c-5.5 0-9-1.2-9.3-3.1-.4-2.8 6.1-6.1 14.9-7.5C18 .8 20.4.6 22.7.6c5.5 0 9 1.2 9.3 3.1.2 1.4-1.2 2.9-4.1 4.3-2.8 1.4-6.6 2.5-10.7 3.1-2.7.5-5.1.7-7.3.7z" filter="url(#f)" opacity=".6" transform="translate(13 44)"/><path fill="#C51162" fill-rule="nonzero" d="M38.8 3.2c-2.9-2.1-6.6-2.9-9.7-2-4.3 1.3-7.1 5.7-8 7.3-1.4-1.3-5.3-4.6-9.8-4.5-3.2.1-6.6 1.9-8.6 4.9-2.4 3.4-2.9 7.8-1.4 12.3 3.6 11.1 16.4 16.3 21.8 18 1 .3 2 .4 3 .2s1.9-.5 2.8-1.1C33.5 35 44 26.2 44.1 14.5c-.1-4.8-2-8.8-5.3-11.3z" filter="url(#g)" opacity=".45" transform="translate(11 14)"/><g fill-rule="nonzero"><path fill="#F06292" d="M35.5 50.3c-.6 0-1.3-.1-1.9-.3-5.3-1.7-18-6.8-21.6-17.8-1.5-4.5-1-8.8 1.4-12.1 2-2.9 5.3-4.7 8.4-4.8h.2c4.7 0 8.7 3.6 9.7 4.7.7-1.3 3.4-6.1 8-7.5.8-.3 1.8-.4 2.7-.4 3 0 5.9 1.3 8.1 3.4 1.7 1.7 3.8 4.8 3.8 9.9C54.3 37 43.8 45.8 39.2 49c-1.1.9-2.4 1.3-3.7 1.3z"/><path fill="#DC4678" d="M42.4 12.4c5.4 0 11.6 4.4 11.6 13.1 0 11.4-10.2 20-15 23.4-1 .7-2.3 1.1-3.5 1.1-.6 0-1.2-.1-1.8-.3-5.6-1.8-17.9-6.9-21.5-17.7-3.2-9.7 3.6-16.4 9.6-16.5h.2c5.3 0 9.7 4.8 9.7 4.8s2.8-6.1 8-7.7c.9-.1 1.8-.2 2.7-.2zm0-.5c-1 0-1.9.1-2.8.4-4.3 1.3-7.1 5.7-8 7.3-1.3-1.3-5.2-4.5-9.6-4.5h-.2c-3.2.1-6.6 1.9-8.6 4.9-2.4 3.4-2.9 7.8-1.4 12.3 3.6 11.1 16.4 16.3 21.8 18 .6.2 1.3.3 2 .3 1.4 0 2.7-.4 3.8-1.2 4.6-3.3 15.1-12.1 15.2-23.8 0-5.2-2.1-8.4-3.8-10.1-2.4-2.3-5.4-3.6-8.4-3.6z"/></g><path fill="#F48FB1" fill-rule="nonzero" d="M41.3 15.5c2.1-.3 4.5.4 6.3 1.9 1.5 1.3 3.3 3.8 3.3 8.1 0 10.1-9.6 18-13.7 21-.4.3-.8.5-1.3.5-.5.1-.9 0-1.4-.1-4.8-1.5-16.4-6.2-19.5-15.7-1.4-4.1-.4-7 .6-8.7 1.2-2 3.3-3.5 5.4-3.8.3 0 .5-.1.8-.1 3.2-.1 6.6 2.8 7.7 3.9l3 3.2 1.9-4c.6-1.4 3-5.1 6.1-6.1.3 0 .6-.1.8-.1"/><path stroke="#FF80AB" d="M41.3 15.5c2.1-.3 4.5.4 6.3 1.9 1.5 1.3 3.3 3.8 3.3 8.1 0 10.1-9.6 18-13.7 21-.4.3-.8.5-1.3.5-.5.1-.9 0-1.4-.1-4.8-1.5-16.4-6.2-19.5-15.7-1.4-4.1-.4-7 .6-8.7 1.2-2 3.3-3.5 5.4-3.8.3 0 .5-.1.8-.1 3.2-.1 6.6 2.8 7.7 3.9l3 3.2 1.9-4c.6-1.4 3-5.1 6.1-6.1.3 0 .6-.1.8-.1"/><path fill="#EC407A" fill-rule="nonzero" d="M18 9.2c-6.2 1-12.3-.4-17.3-3.5 4.4 4.6 11.7 12 18.4 10.9C25.9 15.5 30.5 6.3 33.3.5 29.5 5 24.2 8.2 18 9.2z" filter="url(#h)" opacity=".45" transform="translate(16 25)"/><path fill="#FFCDD2" fill-rule="nonzero" d="M13.6 11.4c1.5 1.1.2 2-.9 3.5s-1.5 3-3 1.9-1.8-3.1-.7-4.6c1.1-1.5 3.2-1.8 4.6-.8z" filter="url(#i)" transform="translate(10 11)"/><path d="M22.1 11.8c-2.3 0-4.7-.2-7.2-.6-4.1-.7-8-1.8-10.7-3.1C1.3 6.7-.1 5.2.1 3.8.4 1.9 3.9.7 9.4.7c2.3 0 4.7.2 7.2.6C25.4 2.7 31.9 6 31.5 8.8c-.4 1.8-3.9 3-9.4 3z" filter="url(#j)" transform="translate(76 44)" fill="#F48FB1" fill-rule="nonzero" opacity=".6"/><path d="M6.2 3.2c2.9-2.1 6.6-2.9 9.7-2 4.3 1.3 7.1 5.7 8 7.3 1.4-1.3 5.3-4.6 9.8-4.5 3.2.1 6.6 1.9 8.6 4.9 2.4 3.4 2.9 7.8 1.4 12.3-3.6 11.1-16.4 16.3-21.8 18-1 .3-2 .4-3 .2s-1.9-.5-2.8-1.1C11.5 35 1 26.2.9 14.5c.1-4.8 2-8.8 5.3-11.3z" filter="url(#k)" transform="translate(65 14)" fill="#C51162" fill-rule="nonzero" opacity=".45"/><g fill-rule="nonzero"><path fill="#F06292" d="M85.5 50.3c-1.3 0-2.6-.4-3.6-1.2-4.5-3.2-15-12-15.1-23.6 0-5.1 2-8.2 3.8-9.9 2.2-2.2 5.1-3.4 8.1-3.4.9 0 1.8.1 2.7.4 4.6 1.4 7.3 6.2 8 7.5 1-1 5-4.7 9.7-4.7h.2c3.2.1 6.4 1.9 8.4 4.8 2.4 3.3 2.9 7.6 1.4 12.1-3.6 11-16.3 16.1-21.6 17.8-.7.1-1.4.2-2 .2z"/><path fill="#DC4678" d="M78.6 12.4c.9 0 1.8.1 2.6.4 5.1 1.5 8 7.7 8 7.7s4.5-4.8 9.7-4.8h.2c6 .1 12.8 6.8 9.6 16.5-3.5 10.8-15.8 15.9-21.5 17.7-.6.2-1.2.3-1.8.3-1.2 0-2.5-.4-3.5-1.1-4.8-3.4-14.9-12.1-15-23.4.1-9 6.3-13.3 11.7-13.3zm0-.5c-3 0-6 1.3-8.3 3.5-1.8 1.8-3.8 4.9-3.8 10.1 0 11.7 10.6 20.6 15.2 23.8 1.1.8 2.4 1.2 3.8 1.2.7 0 1.3-.1 2-.3 5.3-1.7 18.1-6.9 21.8-18 1.5-4.5 1-8.9-1.4-12.3-2.1-2.9-5.4-4.8-8.6-4.9h-.2c-4.4 0-8.3 3.2-9.6 4.5-.9-1.6-3.6-6-8-7.3-1-.2-1.9-.3-2.9-.3z"/></g><path fill="#F48FB1" fill-rule="nonzero" d="M99.9 18.7c2.1.3 4.2 1.8 5.4 3.8 1 1.7 2 4.6.6 8.7-3.1 9.6-14.7 14.2-19.5 15.7-.4.1-.9.2-1.4.1-.5-.1-.9-.3-1.3-.5-4.1-3-13.7-10.9-13.7-21 0-4.4 1.8-6.8 3.3-8.1 1.8-1.5 4.2-2.3 6.3-1.9.3 0 .5.1.7.2 3.1.9 5.5 4.7 6.1 6.1l1.9 4 3-3.2c1-1.1 4.4-4 7.7-3.9.3-.1.6-.1.9 0"/><path stroke="#FF80AB" d="M99.9 18.7c2.1.3 4.2 1.8 5.4 3.8 1 1.7 2 4.6.6 8.7-3.1 9.6-14.7 14.2-19.5 15.7-.4.1-.9.2-1.4.1-.5-.1-.9-.3-1.3-.5-4.1-3-13.7-10.9-13.7-21 0-4.4 1.8-6.8 3.3-8.1 1.8-1.5 4.2-2.3 6.3-1.9.3 0 .5.1.7.2 3.1.9 5.5 4.7 6.1 6.1l1.9 4 3-3.2c1-1.1 4.4-4 7.7-3.9.3-.1.6-.1.9 0"/><path d="M16 9.2C9.8 8.2 4.4 5 .7.5c2.8 5.7 7.4 15 14.2 16.1 6.8 1.1 14-6.3 18.4-10.9-5 3-11 4.4-17.3 3.5z" filter="url(#l)" transform="translate(71 25)" fill="#EC407A" fill-rule="nonzero" opacity=".45"/><path fill="#FFCDD2" fill-rule="nonzero" d="M14.9 8.8c1.1 1.5-.4 1.9-1.9 3s-2.4 2.4-3.5.9-.7-3.6.7-4.6c1.5-1.1 3.6-.7 4.7.7z" filter="url(#m)" transform="translate(66 11)"/></g></svg>