<svg xmlns="http://www.w3.org/2000/svg" width="61.476" height="61.476" viewBox="0 0 61.476 61.476">
    <path fill="#3b5999" d="M53.791 0H7.684A7.691 7.691 0 0 0 0 7.684v46.107a7.692 7.692 0 0 0 7.684 7.684h46.107a7.694 7.694 0 0 0 7.684-7.684V7.684A7.692 7.692 0 0 0 53.791 0z"/>
    <path fill="#fff" d="M28.211 23.711v-7.684c0-2.121 1.721-1.921 3.842-1.921H35.9V4.5h-7.689a11.524 11.524 0 0 0-11.527 11.527v7.684H9v9.606h7.684v21.132h11.527V33.317h5.763l3.842-9.606z" transform="translate(14.053 7.027)"/>
</svg>
