<svg id="Layer_1" data-name="Layer 1" xmlns="http://www.w3.org/2000/svg" viewBox="0 0 217.04 31.79"><defs><style>.cls-1,.cls-2,.cls-3{fill:#37474f;}.cls-1{stroke:#37474f;stroke-miterlimit:10;stroke-width:0.09px;}.cls-3{fill-rule:evenodd;}</style></defs><title>logo tulisan</title><path class="cls-1" d="M94,17.49h5v28H94Z" transform="translate(-93.96 -15.84)"/><path class="cls-1" d="M105.22,17.49h5.09l10,13.72c.58.81,1.22,1.76,1.94,2.86s1.27,2,1.68,2.7l.65,1V17.49h5v28h-5.17l-9.54-13c-.71-1-1.46-2.07-2.24-3.26s-1.38-2.14-1.81-2.83l-.61-1V45.45h-5v-28Z" transform="translate(-93.96 -15.84)"/><path class="cls-1" d="M135.81,17.49h11a14.64,14.64,0,0,1,10.74,4,13.41,13.41,0,0,1,4.1,9.94,13.43,13.43,0,0,1-4.1,9.95,14.65,14.65,0,0,1-10.74,4h-11Zm10.74,23.65a9.59,9.59,0,0,0,7.12-2.73,9.4,9.4,0,0,0,2.72-6.94,9.44,9.44,0,0,0-2.72-6.95,9.62,9.62,0,0,0-7.12-2.71h-5.74V41.14Z" transform="translate(-93.96 -15.84)"/><path class="cls-2" d="M204,31.69a14.43,14.43,0,0,0,.86,5.12,11,11,0,0,0,2.37,3.83,10.1,10.1,0,0,0,3.55,2.4,11.88,11.88,0,0,0,4.45.83,7,7,0,0,0,2.76-.55,10.17,10.17,0,0,0,2.47-1.44,13.16,13.16,0,0,0,3.51-4.27l1.94,1.23a18.82,18.82,0,0,1-2,2.64,13.39,13.39,0,0,1-6.06,3.78,14.73,14.73,0,0,1-4.24.58,16.14,16.14,0,0,1-6.14-1.12,14.36,14.36,0,0,1-4.72-3.06,13.34,13.34,0,0,1-3-4.5,14.08,14.08,0,0,1-1.08-5.44,14.27,14.27,0,0,1,.5-3.73,13.55,13.55,0,0,1,1.43-3.4,14.38,14.38,0,0,1,5.31-5.19,15.56,15.56,0,0,1,3.7-1.48,16.8,16.8,0,0,1,4.29-.52,13.29,13.29,0,0,1,4,.59,13.69,13.69,0,0,1,3.34,1.55,14,14,0,0,1,2.69,2.22,15.93,15.93,0,0,1,2,2.63l-2,1.31a13.34,13.34,0,0,0-3.81-4.83,8,8,0,0,0-4.85-1.53,11.25,11.25,0,0,0-4.41.86,10.52,10.52,0,0,0-3.58,2.46,11.32,11.32,0,0,0-2.4,3.89A14.28,14.28,0,0,0,204,31.69Z" transform="translate(-93.96 -15.84)"/><path class="cls-2" d="M236.81,32.14v13h-4.57V18h4.57V30.39h13.65V18H255V45.19h-4.57v-13Z" transform="translate(-93.96 -15.84)"/><path class="cls-2" d="M273.07,17.39l12.79,27.79h-4.65l-4.14-9.06H265.41l-4.29,9.06h-2.3l13.1-27.79Zm-6.87,17h10L271.29,23.6Z" transform="translate(-93.96 -15.84)"/><path class="cls-2" d="M311,18v1.76h-9.84V45.18h-4.57V19.77h-9.84V18Z" transform="translate(-93.96 -15.84)"/><path class="cls-3" d="M191.19,20.49a15.33,15.33,0,0,0-21.68-.13l-.13.13a15.61,15.61,0,0,0-.57,21.35l-1.53,5.79,7.06-1.82a15.3,15.3,0,0,0,16.86-3.34,15.62,15.62,0,0,0,0-22ZM189,40a12.15,12.15,0,0,1-8.59,3.56,12.51,12.51,0,0,1-2.51-.26,11.9,11.9,0,0,1-2.39-.77l-.5-.05-4,1,.9-3.4-.3-.3A12.14,12.14,0,1,1,189,40Z" transform="translate(-93.96 -15.84)"/><path class="cls-3" d="M180.37,15.84a15.32,15.32,0,0,1,10.91,4.56,15.63,15.63,0,0,1,0,22,15.34,15.34,0,0,1-16.87,3.35l-7,1.81,1.52-5.78a15.64,15.64,0,0,1,.58-21.36,15.28,15.28,0,0,1,10.91-4.56Zm8.94,6.69a12.42,12.42,0,0,0-17.56-.16c-.06.05-.11.11-.16.16a12.82,12.82,0,0,0-.22,17.76l.31.33-.93,3.54,4.11-1.06.52,0a12.42,12.42,0,0,0,13.93-2.63,12.87,12.87,0,0,0,0-18Z" transform="translate(-93.96 -15.84)"/><path class="cls-3" d="M179.63,30.85h.49c0-.42,0-.85,0-1.26l.68-.05a1,1,0,0,0-.24-.4l-.08-.07-.35,0a1.55,1.55,0,0,1,0-.22.87.87,0,0,0-.48,0c0,.1,0,.18,0,.27-.18,0-.33,0-.5,0l-.06.05a1.06,1.06,0,0,0-.26.43c.26,0,.52,0,.8,0Z" transform="translate(-93.96 -15.84)"/><path class="cls-3" d="M180.11,32a.84.84,0,0,0-.2-.05.68.68,0,0,0-.29.06c0,.72,0,1.44,0,2.17h.48C180.1,33.41,180.1,32.68,180.11,32Z" transform="translate(-93.96 -15.84)"/><path class="cls-3" d="M188.43,23.32a11.46,11.46,0,1,0,3.36,8.1A11.46,11.46,0,0,0,188.43,23.32Zm-.43.44h0a6,6,0,0,1-.67,1.71,14.29,14.29,0,0,0-3.31-3,1.8,1.8,0,0,0,.52-1A10.85,10.85,0,0,1,188,23.76Zm-.95,2.14c-.05.07-.09.14-.14.2a6.53,6.53,0,0,1-2,1.72,22,22,0,0,0-2.42-4.51,4.66,4.66,0,0,0,1.12-.55,13.64,13.64,0,0,1,3.42,3.14ZM174.22,34a8.11,8.11,0,0,1-3-2.14c.24,1.21,2.1,2.26,3,2.65a43.32,43.32,0,0,0,0,5.92,10.84,10.84,0,0,1,9.86-19.13c-.06.49-.36,1.4-2.8,1.89a5.64,5.64,0,0,1-3-.12,6.76,6.76,0,0,1-2-1.13c0,.6,1.07,1.32,1.69,1.55a25.86,25.86,0,0,0-2.5,4.74,10.93,10.93,0,0,1-2.88-2.31c-.08.88,2,2.42,2.71,2.77a17.12,17.12,0,0,0-.79,2.76c-.16.83-.27,1.69-.35,2.55Zm11.07,7.12a11.06,11.06,0,0,1-4.75,1.2c-.07-.48-.13-1-.17-1.54a17,17,0,0,0,2.91-.39,13.13,13.13,0,0,0,2.13-.66c0,.43-.08.89-.12,1.39Zm.16-1.93a12.78,12.78,0,0,1-2.27.73,17.22,17.22,0,0,1-2.86.37c-.12-1.45-.17-3.08-.2-4.72h-.49c0,1.65.08,3.28.2,4.73a9.16,9.16,0,0,1-3.58-.62c.7.9,2.44,1.11,3.62,1.11,0,.53.1,1,.17,1.53a10.8,10.8,0,0,1-5.31-1.56,42.13,42.13,0,0,1-.06-6.05,12.21,12.21,0,0,0,2.57.69.46.46,0,0,1-.11-.3v-.21a11.83,11.83,0,0,1-2.43-.68,24.29,24.29,0,0,1,.36-2.68,16.2,16.2,0,0,1,.75-2.64,9,9,0,0,0,2.26.64,2,2,0,0,1,.18-.46,8.16,8.16,0,0,1-2.27-.63,25.94,25.94,0,0,1,2.54-4.8,5.18,5.18,0,0,0,1.36.18c0,.6-.11,2.21-.18,4.3l.15,0a1.32,1.32,0,0,1,.34,0c.07-2.14.14-3.77.18-4.34a8.3,8.3,0,0,0,1-.14c.24-.05.45-.09.65-.15a21.32,21.32,0,0,1,2.49,4.6,9.73,9.73,0,0,1-2.56.84c-.18,0-.34.05-.51.08a2.34,2.34,0,0,1,.19.46l.4-.07a10.21,10.21,0,0,0,2.64-.86,12.92,12.92,0,0,1,.65,2.73c.12,1,.19,1.87.24,2.61a13.57,13.57,0,0,1-2.87.86V35a.33.33,0,0,1,0,.17,13.66,13.66,0,0,0,2.95-.85c0,.53,0,1,0,1.54,0,.93-.07,1.91-.18,3.24Zm-.35-10.85a7.13,7.13,0,0,0,2.19-1.9l.07-.08a11.3,11.3,0,0,1,1.33,2.47,15.64,15.64,0,0,1,.68,2.43A11.67,11.67,0,0,1,186,33.62c0-.69-.13-1.48-.24-2.44a13.84,13.84,0,0,0-.7-2.89Zm2.9,10.8a11,11,0,0,1-2.2,1.7c0-.48.08-.92.11-1.33a16.56,16.56,0,0,0,3.63-2.31A11.52,11.52,0,0,1,188,39.09Zm1.65-2.68A16.17,16.17,0,0,1,186,38.9c.1-1.18.15-2.1.16-3,0-.59,0-1.15-.05-1.77a12.4,12.4,0,0,0,3.4-2.36,21,21,0,0,1,.18,4.62Zm-.51-7.8a12.26,12.26,0,0,0-1.49-2.73,6.4,6.4,0,0,0,.75-1.71A10.88,10.88,0,0,1,190.91,29a7.32,7.32,0,0,1-1.14,1.75,16,16,0,0,0-.63-2.15Zm1,7.32a21.2,21.2,0,0,0-.28-4.57A9.36,9.36,0,0,0,191,29.79a10,10,0,0,1,.12,1.64,10.88,10.88,0,0,1-.94,4.43Z" transform="translate(-93.96 -15.84)"/><path class="cls-3" d="M179.85,28.83a1,1,0,0,0-1,1.05v1h2.09v-1a1,1,0,0,0-1-1.05Z" transform="translate(-93.96 -15.84)"/><path class="cls-3" d="M179.91,31.92a.76.76,0,0,0-.3,1.46v.77h.53l.07,0v-.76a.76.76,0,0,0,.4-1,.77.77,0,0,0-.7-.45Z" transform="translate(-93.96 -15.84)"/><path class="cls-3" d="M186,26.66a14.24,14.24,0,0,0-2.56-.94c-1.6-.43-3.53-.73-3.53-.73s-1.93.3-3.53.73a14.58,14.58,0,0,0-2.57.94,36.66,36.66,0,0,0,.13,6.09,12,12,0,0,0,3.13,5.86,11.15,11.15,0,0,0,2.79,1.9,10.7,10.7,0,0,0,2.87-1.9,11.94,11.94,0,0,0,3.13-5.86A35.94,35.94,0,0,0,186,26.66ZM182.68,35a.46.46,0,0,1-.47.47H177.6a.47.47,0,0,1-.47-.47V31.33a.48.48,0,0,1,.47-.48H178v-1a1.83,1.83,0,0,1,3.66,0v1h.54a.48.48,0,0,1,.48.48h0Z" transform="translate(-93.96 -15.84)"/></svg>